<svg xmlns="http://www.w3.org/2000/svg" viewBox="0 0 132 148.44"><defs><style>.cls-1{fill:#fff;}.cls-2{fill:#f57c00;stroke:#f57c00;stroke-miterlimit:10;stroke-width:2px;}</style></defs><title>Asset 8</title><g id="Layer_2" data-name="Layer 2"><g id="Actions"><rect class="cls-1" x="19.11" width="11.76" height="29.4" rx="5.52" ry="5.52"/><rect class="cls-1" x="77.91" width="11.76" height="29.4" rx="5.52" ry="5.52"/><rect class="cls-1" x="17.93" y="50.76" width="14.7" height="14.7" rx="5.43" ry="5.43"/><rect class="cls-1" x="17.93" y="75.65" width="14.7" height="14.7" rx="5.43" ry="5.43"/><rect class="cls-1" x="47.33" y="50.76" width="14.7" height="14.7" rx="5.43" ry="5.43"/><rect class="cls-1" x="76.73" y="50.76" width="14.7" height="14.7" rx="5.43" ry="5.43"/><rect class="cls-1" x="47.33" y="75.65" width="14.7" height="14.7" rx="5.43" ry="5.43"/><path class="cls-1" d="M62,100.54H12.87a3.47,3.47,0,0,1-3.46-3.46V44.62a3.47,3.47,0,0,1,3.46-3.46H94.73a3.47,3.47,0,0,1,3.46,3.46v15.6a39.81,39.81,0,0,1,9.41.07V24.11a7.08,7.08,0,0,0-7.06-7.06H93.19v8.23a6.49,6.49,0,0,1-6.47,6.47H80.26a6.49,6.49,0,0,1-6.47-6.47V17.05H35v8.23a6.49,6.49,0,0,1-6.47,6.47H22a6.49,6.49,0,0,1-6.47-6.47V17.05H7.06A7.08,7.08,0,0,0,0,24.11v77.61a7.08,7.08,0,0,0,7.06,7.06H62.87A40.74,40.74,0,0,1,62,100.54Z"/><path class="cls-1" d="M102,68.5a30,30,0,1,0,30,30A30,30,0,0,0,102,68.5Zm0,51.94a22,22,0,1,1,22-22A22,22,0,0,1,102,120.44Z"/><rect class="cls-1" x="99.07" y="84.37" width="5.88" height="28.22" rx="2.76" ry="2.76" transform="translate(3.53 200.5) rotate(-90)"/><rect class="cls-1" x="99.07" y="84.37" width="5.88" height="28.22" rx="2.76" ry="2.76" transform="translate(204.03 196.97) rotate(180)"/><line class="cls-2" x1="0.41" y1="147.44" x2="107.41" y2="147.44"/></g></g></svg>