<svg xmlns="http://www.w3.org/2000/svg" viewBox="0 0 836.55 130.82"><defs><style>.cls-1{fill:#3b5895;}.cls-2{fill:#fdfdfd;}.cls-3{font-size:71px;fill:#f5f5f5;font-family:MyriadPro-Regular, Myriad Pro;}.cls-4{letter-spacing:-0.01em;}.cls-5{letter-spacing:0.01em;}.cls-6{letter-spacing:0em;}.cls-7{letter-spacing:-0.01em;}.cls-8{letter-spacing:-0.05em;}.cls-9{letter-spacing:-0.01em;}.cls-10{fill:none;stroke:#eee;stroke-miterlimit:10;}</style></defs><title>Asset 3</title><g id="Layer_2" data-name="Layer 2"><g id="Sign_Up" data-name="Sign Up"><path class="cls-1" d="M0,0H123.61a7.21,7.21,0,0,1,7.21,7.21v116a7.6,7.6,0,0,1-7.6,7.6H0a0,0,0,0,1,0,0V0A0,0,0,0,1,0,0Z" transform="translate(130.82 130.82) rotate(180)"/><path class="cls-2" d="M90.36,130.81h-20c-.38,0-.35-.18-.35-.44q0-24.88,0-49.77c0-.14.08-.32-.08-.44H53.23c-.23,0-.3-.06-.3-.3q0-9.57,0-19.15c0-.32.14-.3.36-.3H69.56c.33,0,.43-.06.43-.42q0-6.95,0-13.89a34.71,34.71,0,0,1,1.06-9,22.87,22.87,0,0,1,6.19-10.89,22.56,22.56,0,0,1,10-5.5,33.78,33.78,0,0,1,9.32-1c4,.05,8.06.22,12.08.56.57,0,1.14.14,1.72.18.25,0,.31.1.31.35,0,1.86,0,3.73,0,5.59q0,5.71,0,11.42c0,.28-.06.36-.35.36-3.57,0-7.14,0-10.71,0a14.24,14.24,0,0,0-4.11.59,6.57,6.57,0,0,0-4.77,5.36,18.43,18.43,0,0,0-.32,3.67c0,4.08,0,8.16,0,12.23,0,.32.1.36.38.36h18.77c.34,0,.42.06.37.42-.33,2.39-.63,4.79-.94,7.18s-.61,4.72-.91,7.08q-.31,2.42-.62,4.84c0,.16-.08.25-.25.23H90.77c-.33,0-.4.09-.4.41q0,24.89,0,49.78C90.37,130.52,90.37,130.66,90.36,130.81Z"/><path class="cls-1" d="M130.82,0H828.95a7.6,7.6,0,0,1,7.6,7.6v116a7.21,7.21,0,0,1-7.21,7.21H130.82a0,0,0,0,1,0,0V0A0,0,0,0,1,130.82,0Z"/><text class="cls-3" transform="translate(175.48 90.38)"><tspan class="cls-4">C</tspan><tspan x="40.4" y="0">onne</tspan><tspan class="cls-5" x="193.76" y="0">c</tspan><tspan class="cls-6" x="226.49" y="0">t </tspan><tspan class="cls-7" x="265.04" y="0">t</tspan><tspan x="288.11" y="0">o </tspan><tspan class="cls-8" x="342.14" y="0">F</tspan><tspan x="373.53" y="0">a</tspan><tspan class="cls-9" x="407.75" y="0">c</tspan><tspan x="439.13" y="0">ebook</tspan></text><line class="cls-10" x1="130.82" x2="130.82" y2="130.82"/></g></g></svg>