<svg xmlns="http://www.w3.org/2000/svg" viewBox="0 0 1041.73 360.3"><defs><style>.cls-1{fill:#e0e0e0;}.cls-2{fill:#f27c22;}</style></defs><title>Asset 1</title><g id="Layer_2" data-name="Layer 2"><g id="Sign_Up" data-name="Sign Up"><path class="cls-1" d="M1041.73,229.88c0,90.84-62.93,130.42-122.3,130.42C853,360.3,801.7,311.59,801.7,233.94c0-82.21,53.79-130.42,121.79-130.42C994,103.52,1041.73,154.78,1041.73,229.88Zm-194.87,2.54c0,53.79,31,94.39,74.6,94.39,42.63,0,74.6-40.09,74.6-95.4,0-41.61-20.81-94.39-73.58-94.39S846.86,185.73,846.86,232.42Z"/><path class="cls-2" d="M58.3,240.54c1,60.39,39.58,85.26,84.24,85.26,32,0,51.25-5.58,68-12.69l7.61,32c-15.73,7.1-42.63,15.22-81.7,15.22-75.61,0-120.78-49.73-120.78-123.82S59.31,104,130.86,104c80.18,0,101.49,70.54,101.49,115.7a168.43,168.43,0,0,1-1.52,20.81Zm130.93-32c.51-28.42-11.67-72.57-61.91-72.57-45.16,0-65,41.61-68.51,72.57Z"/><path class="cls-1" d="M509.59,229.88c0,90.84-62.93,130.42-122.3,130.42-66.48,0-117.73-48.72-117.73-126.36,0-82.21,53.79-130.42,121.79-130.42C461.89,103.52,509.59,154.78,509.59,229.88Zm-194.87,2.54c0,53.79,31,94.39,74.6,94.39,42.63,0,74.6-40.09,74.6-95.4,0-41.61-20.81-94.39-73.58-94.39S314.72,185.73,314.72,232.42Z"/><path class="cls-1" d="M615.3,227.35h1c6.09-8.63,14.72-19.28,21.82-27.91l72.06-84.75H764l-94.9,101L777.18,360.3h-54.3L638.14,242.57,615.3,267.94V360.3H571.15V0H615.3Z"/><rect class="cls-2" x="-19.06" y="68.77" width="178.98" height="20.21" transform="translate(-35.15 72.9) rotate(-45)"/><rect class="cls-2" x="94.15" y="68.77" width="178.98" height="20.21" transform="translate(257.72 264.51) rotate(-135)"/></g></g></svg>