<svg xmlns="http://www.w3.org/2000/svg" viewBox="0 0 1874.2 648.23"><defs><style>.cls-1{fill:#e0e0e0;}.cls-2{fill:#f27c22;}</style></defs><title>Asset 11</title><g id="Layer_2" data-name="Layer 2"><g id="Layer_3" data-name="Layer 3"><path class="cls-1" d="M1874.2,413.59c0,163.43-113.21,234.64-220,234.64-119.6,0-211.82-87.65-211.82-227.33,0-147.91,96.78-234.64,219.12-234.64C1788.37,186.25,1874.2,278.46,1874.2,413.59Zm-350.59,4.57c0,96.78,55.69,169.82,134.21,169.82,76.69,0,134.21-72.13,134.21-171.64,0-74.87-37.43-169.82-132.38-169.82S1523.61,334.16,1523.61,418.15Z"/><path class="cls-2" d="M104.88,432.76c1.83,108.65,71.21,153.38,151.56,153.38,57.52,0,92.21-10,122.34-22.83l13.7,57.52c-28.3,12.78-76.69,27.39-147,27.39-136,0-217.29-89.47-217.29-222.77s78.52-238.29,207.25-238.29c144.25,0,182.6,126.91,182.6,208.16,0,16.43-1.83,29.22-2.74,37.43Zm235.55-57.52c.91-51.13-21-130.56-111.38-130.56-81.26,0-116.86,74.87-123.25,130.56Z"/><path class="cls-1" d="M916.81,413.59c0,163.43-113.21,234.64-220,234.64C577.18,648.23,485,560.58,485,420.89,485,273,581.74,186.25,704.08,186.25,831,186.25,916.81,278.46,916.81,413.59Zm-350.59,4.56c0,96.78,55.69,169.82,134.21,169.82,76.69,0,134.21-72.13,134.21-171.64,0-74.87-37.43-169.82-132.38-169.82S566.22,334.16,566.22,418.15Z"/><path class="cls-1" d="M1107,409h1.83c11-15.52,26.48-34.69,39.26-50.21l129.64-152.47h96.78L1203.78,388l194.47,260.2h-97.69L1148.09,436.41,1107,482.06V648.23h-79.43V0H1107Z"/><rect class="cls-2" x="-34.3" y="123.73" width="322.01" height="36.37" transform="translate(-63.24 131.16) rotate(-45)"/><rect class="cls-2" x="169.39" y="123.73" width="322.01" height="36.37" transform="translate(463.67 475.88) rotate(-135)"/></g></g></svg>