<svg xmlns="http://www.w3.org/2000/svg" viewBox="0 0 115 115.58"><defs><style>.cls-1{opacity:0.58;}.cls-2{fill:#fff;}</style></defs><title>Asset 6</title><g id="Layer_2" data-name="Layer 2"><g id="Actions"><g id="xKYIXh.tif" class="cls-1"><path class="cls-2" d="M56,0h3a6.54,6.54,0,0,1,6.1,5.67c.21,1,.92,1.2,1.72,1.37a40.3,40.3,0,0,1,9.25,3.09c8.28,4,13.61,10.55,16.66,19.09a55.15,55.15,0,0,1,2.9,15.16c.24,3.71.07,7.42.25,11.12A87.74,87.74,0,0,0,98.2,73.21a32.93,32.93,0,0,0,11.86,18.18c1.42,1.11,2.77,2.32,4.16,3.47.43.35.94.81.73,1.38s-.92.46-1.46.5-.8,0-1.2,0q-54.85,0-109.7,0C1.72,96.72.77,97,0,96.3c-.08-.92.65-1.3,1.22-1.75,2.36-1.86,4.67-3.8,6.87-5.85C13.2,83.94,16,77.92,17.38,71.18a110,110,0,0,0,1.84-22.13A64.32,64.32,0,0,1,21.14,33,36.34,36.34,0,0,1,29.9,16.72,32.44,32.44,0,0,1,47.24,7.37c1.7-.35,2.69-.89,3.16-2.74A5.91,5.91,0,0,1,56,0Z"/><path class="cls-2" d="M55.06,115.31c-5.88-.63-11.55-5.63-12.81-11.34-.13-.58-.59-1.36.74-1.35,9.88,0,19.76,0,29.64,0a2.28,2.28,0,0,1,.43.08A15.29,15.29,0,0,1,60.57,115.3c-.32.05-.72-.1-.94.29h-3C56.14,115.22,55.54,115.61,55.06,115.31Z"/><path class="cls-2" d="M55.06,115.31a1.6,1.6,0,0,1,1.55.27h-1.5A.22.22,0,0,0,55.06,115.31Z"/></g></g></g></svg>