<svg xmlns="http://www.w3.org/2000/svg" viewBox="0 0 128.62 108.2"><defs><style>.cls-1{opacity:0.58;}.cls-2{fill:#fff;}</style></defs><title>Asset 10</title><g id="Layer_2" data-name="Layer 2"><g id="Actions"><g id="K5YwGQ.tif" class="cls-1"><path class="cls-2" d="M0,60.06c.42-.11.3-.5.34-.76A23.85,23.85,0,0,1,12.64,41.94,23,23,0,0,1,24.15,39h16c.34,0,.69.08,1,.06.56,0,.75.17.78.75a23.33,23.33,0,0,0,5.57,13.73c.45.54,1.1.92,1.38,1.67a29.94,29.94,0,0,0-7.38,3.49,28.94,28.94,0,0,0-9.86,11c-2.62,5.07-3.3,10.51-3.13,16.13,0,.87.41,2.06-.2,2.53s-1.63,0-2.48-.11a113.06,113.06,0,0,1-23.7-4.64c-.72-.21-1.44-.39-2.17-.58Z"/><path class="cls-2" d="M128.62,82.66c-7.32,3.64-15.17,5.15-23.24,5.75-.85.06-1.71.09-2.56.21s-.93-.19-.91-.9c0-1.54,0-3.08,0-4.62A28.76,28.76,0,0,0,82,55.35l-.46-.14c.75-.88,1.47-1.69,2.14-2.54a22.89,22.89,0,0,0,4.88-12.62c.05-.63,0-1.07.93-1.06,5.54.09,11.1-.16,16.63.13a23.16,23.16,0,0,1,16,7.54,23.67,23.67,0,0,1,6.3,13.09c0,.24-.08.57.26.71Z"/><path class="cls-2" d="M97.38,91c0,3.42,0,6.85,0,10.27a1.29,1.29,0,0,1-.89,1.39,63.22,63.22,0,0,1-20.28,5.12,88.12,88.12,0,0,1-16,.22,116.91,116.91,0,0,1-26.5-5.26c-.49-.16-.65-.37-.64-.84.09-7.22-.36-14.45.21-21.65S37.41,67.26,43.25,63a23.36,23.36,0,0,1,14.09-4.51c6,0,11.92-.23,17.86.13a22.89,22.89,0,0,1,14.21,6.12,24,24,0,0,1,7.42,12.7A24.94,24.94,0,0,1,97.37,83C97.38,85.68,97.38,88.32,97.38,91Z"/><path class="cls-2" d="M65.23,19.5A18.84,18.84,0,1,1,46.41,38.38,18.74,18.74,0,0,1,65.23,19.5Z"/><path class="cls-2" d="M31.58,37.69A18,18,0,0,1,15.5,27.56C11.45,19.83,13.06,11.06,19.36,5A19,19,0,0,1,39.91,1.68,18.85,18.85,0,0,1,50.62,15,17.08,17.08,0,0,1,51,19.29a1.27,1.27,0,0,1-.5,1.05,23,23,0,0,0-8.17,13.81,1.32,1.32,0,0,1-.76,1A19.71,19.71,0,0,1,31.58,37.69Z"/><path class="cls-2" d="M96.32,0a18.83,18.83,0,1,1-6.65,36.4,1.81,1.81,0,0,1-1.38-1.62,22.44,22.44,0,0,0-6.14-12.48,19,19,0,0,0-3.75-3.17,1.34,1.34,0,0,1-.72-1.41,18.51,18.51,0,0,1,8.8-14.8A18.11,18.11,0,0,1,96.32,0Z"/></g></g></g></svg>