<svg xmlns="http://www.w3.org/2000/svg" viewBox="0 0 134 138.31"><defs><style>.cls-1{fill:#fff;}.cls-2{fill:#f57c00;stroke:#f57c00;stroke-miterlimit:10;stroke-width:2px;}</style></defs><title>Asset 11</title><g id="Layer_2" data-name="Layer 2"><g id="People"><g id="K5YwGQ.tif"><path class="cls-1" d="M2.36,60.06c.42-.11.3-.5.34-.76A23.85,23.85,0,0,1,15,41.94,23,23,0,0,1,26.51,39h16c.34,0,.69.08,1,.06.56,0,.75.17.78.75a23.33,23.33,0,0,0,5.57,13.73c.45.54,1.1.92,1.38,1.67a29.94,29.94,0,0,0-7.38,3.49,28.94,28.94,0,0,0-9.86,11c-2.62,5.07-3.3,10.51-3.13,16.13,0,.87.41,2.06-.2,2.53s-1.63,0-2.48-.11a113.06,113.06,0,0,1-23.7-4.64c-.72-.21-1.44-.39-2.17-.58Z"/><path class="cls-1" d="M131,82.66c-7.32,3.64-15.17,5.15-23.24,5.75-.85.06-1.71.09-2.56.21s-.93-.19-.91-.9c0-1.54,0-3.08,0-4.62A28.76,28.76,0,0,0,84.33,55.35l-.46-.14c.75-.88,1.47-1.69,2.14-2.54a22.89,22.89,0,0,0,4.88-12.62c.05-.63,0-1.07.93-1.06,5.54.09,11.1-.16,16.63.13a23.16,23.16,0,0,1,16,7.54,23.67,23.67,0,0,1,6.3,13.09c0,.24-.08.57.26.71Z"/><path class="cls-1" d="M99.74,91c0,3.42,0,6.85,0,10.27a1.29,1.29,0,0,1-.89,1.39,63.22,63.22,0,0,1-20.28,5.12,88.12,88.12,0,0,1-16,.22,116.91,116.91,0,0,1-26.5-5.26c-.49-.16-.65-.37-.64-.84.09-7.22-.36-14.45.21-21.65S39.78,67.26,45.61,63A23.36,23.36,0,0,1,59.7,58.49c6,0,11.92-.23,17.86.13a22.89,22.89,0,0,1,14.21,6.12,24,24,0,0,1,7.42,12.7A24.94,24.94,0,0,1,99.74,83C99.75,85.68,99.74,88.32,99.74,91Z"/><path class="cls-1" d="M67.59,19.5A18.84,18.84,0,1,1,48.77,38.38,18.74,18.74,0,0,1,67.59,19.5Z"/><path class="cls-1" d="M33.95,37.69A18,18,0,0,1,17.86,27.56C13.81,19.83,15.43,11.06,21.72,5A19,19,0,0,1,42.28,1.68,18.85,18.85,0,0,1,53,15a17.08,17.08,0,0,1,.36,4.29,1.27,1.27,0,0,1-.5,1.05,23,23,0,0,0-8.17,13.81,1.32,1.32,0,0,1-.76,1A19.71,19.71,0,0,1,33.95,37.69Z"/><path class="cls-1" d="M98.68,0A18.83,18.83,0,1,1,92,36.4a1.81,1.81,0,0,1-1.38-1.62,22.44,22.44,0,0,0-6.14-12.48,19,19,0,0,0-3.75-3.17A1.34,1.34,0,0,1,80,17.71a18.51,18.51,0,0,1,8.8-14.8A18.11,18.11,0,0,1,98.68,0Z"/></g><line class="cls-2" y1="137.31" x2="134" y2="137.31"/></g></g></svg>